<svg width="13" height="16" viewBox="0 0 13 16" fill="none" xmlns="http://www.w3.org/2000/svg">
<path d="M6.50001 10.0833C7.81418 10.0833 8.86709 9.02251 8.86709 7.70834L8.87501 2.95834C8.87501 1.64418 7.81418 0.583344 6.50001 0.583344C5.18584 0.583344 4.12501 1.64418 4.12501 2.95834V7.70834C4.12501 9.02251 5.18584 10.0833 6.50001 10.0833ZM5.55001 2.87918C5.55001 2.35668 5.97751 1.92918 6.50001 1.92918C7.02251 1.92918 7.45001 2.35668 7.45001 2.87918L7.44209 7.78751C7.44209 8.31001 7.02251 8.73751 6.50001 8.73751C5.97751 8.73751 5.55001 8.31001 5.55001 7.78751V2.87918ZM10.6958 7.70834C10.6958 10.0833 8.68501 11.7458 6.50001 11.7458C4.31501 11.7458 2.30418 10.0833 2.30418 7.70834H0.958344C0.958344 10.4079 3.11168 12.6404 5.70834 13.0283V15.625H7.29168V13.0283C9.88834 12.6483 12.0417 10.4158 12.0417 7.70834H10.6958Z" fill="#3D5B68"/>
</svg>
