<svg width="22" height="9" viewBox="0 0 22 9" fill="none" xmlns="http://www.w3.org/2000/svg">
<path d="M16.9653 3.45887C17.8744 3.90043 18.7316 4.45454 19.5281 5.11255L18.6017 6.03896C18.0995 5.63203 17.5541 5.2684 16.974 4.93939V3.45887H16.9653ZM5.54544 3.45887V4.93073C4.98267 5.25108 4.43721 5.61472 3.92639 6.0303L2.99999 5.10389C3.78786 4.45454 4.64501 3.90909 5.54544 3.45887ZM11.2597 0.411255C7.32899 0.411255 3.76189 1.95238 1.1212 4.45454C0.965355 4.61039 0.870117 4.82684 0.870117 5.06926C0.870117 5.31169 0.965355 5.52814 1.1212 5.67532L3.26838 7.82251C3.42423 7.97835 3.64068 8.07359 3.8831 8.07359C4.11687 8.07359 4.33332 7.98701 4.48916 7.83116C5.17315 7.19913 5.94371 6.65368 6.79219 6.22943C7.07791 6.09091 7.27704 5.78788 7.27704 5.45021V2.76623C8.53245 2.35931 9.87444 2.14286 11.2597 2.14286C12.645 2.14286 13.987 2.35931 15.2337 2.77489V5.45887C15.2337 5.80519 15.4329 6.09956 15.7186 6.23809C16.5671 6.66233 17.3463 7.19913 18.0303 7.83982C18.1861 7.98701 18.4026 8.08225 18.6363 8.08225C18.8788 8.08225 19.0952 7.98701 19.2511 7.83116L21.3982 5.68398C21.5541 5.52814 21.6493 5.31169 21.6493 5.06926C21.6493 4.82684 21.5541 4.61039 21.3982 4.45454C18.7576 1.95238 15.1905 0.411255 11.2597 0.411255Z" fill="white"/>
</svg>
